<svg
  xmlns="http://www.w3.org/2000/svg"
  xmlns:xlink="http://www.w3.org/1999/xlink"
  zoomAndPan="magnify"
  viewBox="0 0 384 383.999986"
  preserveAspectRatio="xMidYMid meet"
  version="1.0"
>
  <path
    fill="currentColor"
    fill-opacity="1"
    fill-rule="nonzero"
    d="M 1.707031 350.972656 C 1.707031 267.753906 1.082031 184.53125 1.707031 101.308594 C 1.917969 80.816406 5.679688 60.324219 7.773438 40.042969 C 8.191406 36.90625 9.027344 33.769531 10.070312 30.84375 C 14.671875 19.339844 22.828125 17.878906 30.144531 27.707031 C 35.792969 35.441406 40.808594 44.015625 44.992188 52.796875 C 56.28125 75.171875 74.265625 85.207031 99.148438 83.746094 C 115.875 82.90625 132.605469 82.90625 149.332031 82.90625 C 162.296875 82.90625 171.914062 77.472656 178.398438 66.179688 C 186.550781 51.960938 194.917969 37.953125 203.90625 24.359375 C 208.71875 17.25 214.570312 8.886719 224.609375 11.8125 C 235.691406 15.160156 235.691406 25.40625 235.691406 35.234375 C 236.316406 115.738281 236.945312 196.238281 237.363281 276.535156 C 237.363281 283.226562 239.035156 287.199219 245.101562 289.289062 C 246.5625 289.917969 248.027344 290.960938 249.492188 292.007812 C 277.511719 311.035156 299.464844 309.363281 327.066406 281.132812 C 331.039062 277.160156 333.96875 272.351562 337.523438 268.171875 C 346.515625 257.296875 361.152344 254.789062 372.023438 262.523438 C 383.105469 270.46875 386.242188 284.898438 378.296875 296.816406 C 362.195312 320.863281 341.496094 339.265625 312.429688 349.929688 C 286.082031 358.292969 261.828125 354.945312 237.78125 343.445312 C 236.738281 348.046875 236.109375 351.808594 235.273438 355.363281 C 231.71875 367.285156 225.234375 372.09375 213.527344 372.09375 C 152.609375 371.953125 91.761719 371.882812 30.980469 371.882812 C 11.328125 371.882812 7.5625 369.164062 1.707031 350.972656 Z M 34.535156 169.894531 C 42.902344 183.695312 58.164062 185.574219 66.527344 174.074219 C 71.964844 166.757812 72.175781 159.019531 66.738281 151.910156 C 61.09375 144.59375 53.773438 141.875 44.78125 145.429688 C 35.582031 149.191406 32.238281 156.300781 34.535156 169.894531 Z M 182.578125 145.636719 C 168.152344 154.628906 166.898438 171.148438 180.070312 178.882812 C 188.015625 183.484375 195.542969 182.648438 202.234375 176.585938 C 208.71875 170.519531 210.597656 162.992188 206.625 154.839844 C 201.816406 145.636719 194.078125 142.292969 182.578125 145.636719 Z M 182.578125 145.636719 "
  />
</svg>
